<svg width="1115" height="425" viewBox="0 0 1115 425" fill="none" xmlns="http://www.w3.org/2000/svg">
<g filter="url(#filter0_i_60_154)">
<path d="M251.921 76.5767C252.649 74.3344 255.821 74.3344 256.55 76.5767V76.5767C256.876 77.5795 257.81 78.2584 258.865 78.2584V78.2584C261.222 78.2584 262.203 81.2754 260.295 82.6612V82.6612C259.442 83.281 259.085 84.3795 259.411 85.3823V85.3823C260.14 87.6246 257.573 89.4892 255.666 88.1034V88.1034C254.813 87.4836 253.658 87.4836 252.805 88.1034V88.1034C250.897 89.4892 248.331 87.6246 249.06 85.3823V85.3823C249.385 84.3795 249.028 83.281 248.175 82.6612V82.6612C246.268 81.2754 247.248 78.2584 249.606 78.2584V78.2584C250.66 78.2584 251.595 77.5795 251.921 76.5767V76.5767Z" fill="#FAC57D"/>
<path d="M27.6328 111.622C28.3614 109.379 31.5336 109.379 32.2622 111.622V111.622C32.588 112.624 33.5225 113.303 34.5769 113.303V113.303C36.9346 113.303 37.9149 116.32 36.0074 117.706V117.706C35.1544 118.326 34.7975 119.424 35.1233 120.427V120.427C35.8519 122.67 33.2855 124.534 31.378 123.148V123.148C30.525 122.529 29.3699 122.529 28.5169 123.148V123.148C26.6095 124.534 24.0431 122.67 24.7717 120.427V120.427C25.0975 119.424 24.7406 118.326 23.8875 117.706V117.706C21.9801 116.32 22.9604 113.303 25.3181 113.303V113.303C26.3725 113.303 27.307 112.624 27.6328 111.622V111.622Z" fill="#FAC57D"/>
<path d="M139.777 221.217C140.505 218.975 143.678 218.975 144.406 221.217V221.217C144.732 222.22 145.667 222.899 146.721 222.899V222.899C149.079 222.899 150.059 225.916 148.151 227.301V227.301C147.298 227.921 146.942 229.02 147.267 230.022V230.022C147.996 232.265 145.43 234.129 143.522 232.744V232.744C142.669 232.124 141.514 232.124 140.661 232.744V232.744C138.754 234.129 136.187 232.265 136.916 230.022V230.022C137.242 229.02 136.885 227.921 136.032 227.301V227.301C134.124 225.916 135.104 222.899 137.462 222.899V222.899C138.517 222.899 139.451 222.22 139.777 221.217V221.217Z" fill="#FAC57D"/>
<path d="M501.696 76.5767C502.424 74.3344 505.597 74.3344 506.325 76.5767V76.5767C506.651 77.5795 507.585 78.2584 508.64 78.2584V78.2584C510.998 78.2584 511.978 81.2754 510.07 82.6612V82.6612C509.217 83.281 508.86 84.3795 509.186 85.3823V85.3823C509.915 87.6246 507.348 89.4892 505.441 88.1034V88.1034C504.588 87.4836 503.433 87.4836 502.58 88.1034V88.1034C500.672 89.4892 498.106 87.6246 498.835 85.3823V85.3823C499.16 84.3795 498.804 83.281 497.951 82.6612V82.6612C496.043 81.2754 497.023 78.2584 499.381 78.2584V78.2584C500.435 78.2584 501.37 77.5795 501.696 76.5767V76.5767Z" fill="#FAC57D"/>
<path d="M578.157 188.083C578.886 185.841 582.058 185.841 582.787 188.083V188.083C583.113 189.086 584.047 189.765 585.102 189.765V189.765C587.459 189.765 588.44 192.782 586.532 194.168V194.168C585.679 194.788 585.322 195.886 585.648 196.889V196.889C586.377 199.131 583.81 200.996 581.903 199.61V199.61C581.05 198.99 579.895 198.99 579.042 199.61V199.61C577.134 200.996 574.568 199.131 575.296 196.889V196.889C575.622 195.886 575.265 194.788 574.412 194.168V194.168C572.505 192.782 573.485 189.765 575.843 189.765V189.765C576.897 189.765 577.832 189.086 578.157 188.083V188.083Z" fill="#FAC57D"/>
<path d="M147.423 406.637C148.151 404.394 151.324 404.394 152.052 406.637V406.637C152.378 407.639 153.313 408.318 154.367 408.318V408.318C156.725 408.318 157.705 411.335 155.797 412.721V412.721C154.944 413.341 154.588 414.44 154.913 415.442V415.442C155.642 417.685 153.076 419.549 151.168 418.163V418.163C150.315 417.544 149.16 417.544 148.307 418.163V418.163C146.4 419.549 143.833 417.685 144.562 415.442V415.442C144.888 414.44 144.531 413.341 143.678 412.721V412.721C141.77 411.335 142.75 408.318 145.108 408.318V408.318C146.163 408.318 147.097 407.639 147.423 406.637V406.637Z" fill="#FAC57D"/>
<path d="M10.4289 257.536C11.1575 255.294 14.3298 255.294 15.0583 257.536V257.536C15.3842 258.539 16.3186 259.218 17.373 259.218V259.218C19.7307 259.218 20.711 262.235 18.8036 263.621V263.621C17.9506 264.24 17.5936 265.339 17.9194 266.342V266.342C18.648 268.584 16.0816 270.449 14.1742 269.063V269.063C13.3212 268.443 12.1661 268.443 11.3131 269.063V269.063C9.40565 270.449 6.83924 268.584 7.56781 266.342V266.342C7.89363 265.339 7.5367 264.24 6.68367 263.621V263.621C4.77626 262.235 5.75654 259.218 8.11423 259.218V259.218C9.16863 259.218 10.1031 258.539 10.4289 257.536V257.536Z" fill="#FAC57D"/>
<path d="M776.321 53.001C777.05 50.7587 780.222 50.7587 780.95 53.001V53.001C781.276 54.0038 782.211 54.6827 783.265 54.6827V54.6827C785.623 54.6827 786.603 57.6997 784.696 59.0855V59.0855C783.843 59.7053 783.486 60.8038 783.812 61.8066V61.8066C784.54 64.0489 781.974 65.9135 780.066 64.5277V64.5277C779.213 63.9079 778.058 63.9079 777.205 64.5277V64.5277C775.298 65.9135 772.731 64.0489 773.46 61.8066V61.8066C773.786 60.8038 773.429 59.7053 772.576 59.0855V59.0855C770.668 57.6997 771.649 54.6827 774.006 54.6827V54.6827C775.061 54.6827 775.995 54.0038 776.321 53.001V53.001Z" fill="#FAC57D"/>
<path d="M630.406 27.5137C631.135 25.2714 634.307 25.2714 635.036 27.5137V27.5137C635.362 28.5165 636.296 29.1954 637.351 29.1954V29.1954C639.708 29.1954 640.689 32.2124 638.781 33.5982V33.5982C637.928 34.218 637.571 35.3165 637.897 36.3193V36.3193C638.626 38.5616 636.059 40.4262 634.152 39.0404V39.0404C633.299 38.4207 632.144 38.4207 631.291 39.0404V39.0404C629.383 40.4262 626.817 38.5616 627.545 36.3193V36.3193C627.871 35.3165 627.514 34.218 626.661 33.5982V33.5982C624.754 32.2124 625.734 29.1954 628.092 29.1954V29.1954C629.146 29.1954 630.081 28.5165 630.406 27.5137V27.5137Z" fill="#FAC57D"/>
<path d="M543.113 321.254C543.841 319.012 547.013 319.012 547.742 321.254V321.254C548.068 322.257 549.002 322.936 550.057 322.936V322.936C552.414 322.936 553.395 325.953 551.487 327.339V327.339C550.634 327.959 550.277 329.057 550.603 330.06V330.06C551.332 332.302 548.765 334.167 546.858 332.781V332.781C546.005 332.161 544.85 332.161 543.997 332.781V332.781C542.089 334.167 539.523 332.302 540.251 330.06V330.06C540.577 329.057 540.22 327.959 539.367 327.339V327.339C537.46 325.953 538.44 322.936 540.798 322.936V322.936C541.852 322.936 542.787 322.257 543.113 321.254V321.254Z" fill="#FAC57D"/>
<path d="M404.844 162.596C405.573 160.354 408.745 160.354 409.474 162.596V162.596C409.799 163.599 410.734 164.278 411.788 164.278V164.278C414.146 164.278 415.126 167.295 413.219 168.681V168.681C412.366 169.3 412.009 170.399 412.335 171.402V171.402C413.063 173.644 410.497 175.509 408.589 174.123V174.123C407.736 173.503 406.581 173.503 405.728 174.123V174.123C403.821 175.509 401.255 173.644 401.983 171.402V171.402C402.309 170.399 401.952 169.3 401.099 168.681V168.681C399.192 167.295 400.172 164.278 402.53 164.278V164.278C403.584 164.278 404.518 163.599 404.844 162.596V162.596Z" fill="#FAC57D"/>
<path d="M936.891 7.1239C937.619 4.8816 940.792 4.8816 941.52 7.1239V7.1239C941.846 8.12669 942.781 8.80563 943.835 8.80563V8.80563C946.193 8.80563 947.173 11.8226 945.265 13.2084V13.2084C944.412 13.8282 944.056 14.9267 944.381 15.9295V15.9295C945.11 18.1718 942.544 20.0364 940.636 18.6506V18.6506C939.783 18.0309 938.628 18.0309 937.775 18.6506V18.6506C935.868 20.0364 933.301 18.1718 934.03 15.9295V15.9295C934.356 14.9267 933.999 13.8282 933.146 13.2084V13.2084C931.238 11.8226 932.218 8.80563 934.576 8.80563V8.80563C935.631 8.80563 936.565 8.12669 936.891 7.1239V7.1239Z" fill="#FAC57D"/>
<path d="M1099.37 295.767C1100.1 293.525 1103.27 293.525 1104 295.767V295.767C1104.33 296.77 1105.26 297.449 1106.32 297.449V297.449C1108.67 297.449 1109.65 300.466 1107.75 301.852V301.852C1106.89 302.471 1106.54 303.57 1106.86 304.573V304.573C1107.59 306.815 1105.02 308.68 1103.12 307.294V307.294C1102.26 306.674 1101.11 306.674 1100.26 307.294V307.294C1098.35 308.68 1095.78 306.815 1096.51 304.573V304.573C1096.84 303.57 1096.48 302.471 1095.63 301.852V301.852C1093.72 300.466 1094.7 297.449 1097.06 297.449V297.449C1098.11 297.449 1099.05 296.77 1099.37 295.767V295.767Z" fill="#FAC57D"/>
<path d="M949.634 165.145C950.363 162.903 953.535 162.903 954.264 165.145V165.145C954.59 166.148 955.524 166.827 956.579 166.827V166.827C958.936 166.827 959.917 169.844 958.009 171.229V171.229C957.156 171.849 956.799 172.948 957.125 173.951V173.951C957.854 176.193 955.287 178.057 953.38 176.672V176.672C952.527 176.052 951.372 176.052 950.519 176.672V176.672C948.611 178.057 946.045 176.193 946.773 173.951V173.951C947.099 172.948 946.742 171.849 945.889 171.229V171.229C943.982 169.844 944.962 166.827 947.32 166.827V166.827C948.374 166.827 949.309 166.148 949.634 165.145V165.145Z" fill="#FAC57D"/>
<path d="M901.846 202.739C902.574 200.496 905.747 200.496 906.475 202.739V202.739C906.801 203.741 907.736 204.42 908.79 204.42V204.42C911.148 204.42 912.128 207.437 910.221 208.823V208.823C909.368 209.443 909.011 210.541 909.336 211.544V211.544C910.065 213.787 907.499 215.651 905.591 214.265V214.265C904.738 213.646 903.583 213.646 902.73 214.265V214.265C900.823 215.651 898.256 213.787 898.985 211.544V211.544C899.311 210.541 898.954 209.443 898.101 208.823V208.823C896.193 207.437 897.174 204.42 899.531 204.42V204.42C900.586 204.42 901.52 203.741 901.846 202.739V202.739Z" fill="#FAC57D"/>
<path d="M376.171 24.965C376.9 22.7227 380.072 22.7227 380.801 24.965V24.965C381.126 25.9678 382.061 26.6467 383.115 26.6467V26.6467C385.473 26.6467 386.453 29.6637 384.546 31.0495V31.0495C383.693 31.6693 383.336 32.7678 383.662 33.7706V33.7706C384.39 36.0129 381.824 37.8775 379.916 36.4917V36.4917C379.063 35.8719 377.908 35.8719 377.055 36.4917V36.4917C375.148 37.8775 372.581 36.0129 373.31 33.7706V33.7706C373.636 32.7678 373.279 31.6693 372.426 31.0495V31.0495C370.518 29.6637 371.499 26.6467 373.856 26.6467V26.6467C374.911 26.6467 375.845 25.9678 376.171 24.965V24.965Z" fill="#FAC57D"/>
<path d="M228.345 316.157C229.074 313.915 232.246 313.915 232.974 316.157V316.157C233.3 317.16 234.235 317.839 235.289 317.839V317.839C237.647 317.839 238.627 320.856 236.72 322.241V322.241C235.867 322.861 235.51 323.96 235.835 324.963V324.963C236.564 327.205 233.998 329.069 232.09 327.684V327.684C231.237 327.064 230.082 327.064 229.229 327.684V327.684C227.322 329.069 224.755 327.205 225.484 324.963V324.963C225.81 323.96 225.453 322.861 224.6 322.241V322.241C222.692 320.856 223.673 317.839 226.03 317.839V317.839C227.085 317.839 228.019 317.16 228.345 316.157V316.157Z" fill="#FAC57D"/>
<path d="M885.279 356.299C886.008 354.057 889.18 354.057 889.908 356.299V356.299C890.234 357.302 891.169 357.981 892.223 357.981V357.981C894.581 357.981 895.561 360.998 893.654 362.384V362.384C892.801 363.004 892.444 364.102 892.77 365.105V365.105C893.498 367.347 890.932 369.212 889.024 367.826V367.826C888.171 367.206 887.016 367.206 886.163 367.826V367.826C884.256 369.212 881.689 367.347 882.418 365.105V365.105C882.744 364.102 882.387 363.004 881.534 362.384V362.384C879.626 360.998 880.607 357.981 882.964 357.981V357.981C884.019 357.981 884.953 357.302 885.279 356.299V356.299Z" fill="#FAC57D"/>
<path d="M684.567 286.209C685.295 283.967 688.468 283.967 689.196 286.209V286.209C689.522 287.212 690.457 287.891 691.511 287.891V287.891C693.869 287.891 694.849 290.908 692.942 292.294V292.294C692.089 292.914 691.732 294.012 692.057 295.015V295.015C692.786 297.257 690.22 299.122 688.312 297.736V297.736C687.459 297.116 686.304 297.116 685.451 297.736V297.736C683.544 299.122 680.977 297.257 681.706 295.015V295.015C682.032 294.012 681.675 292.914 680.822 292.294V292.294C678.914 290.908 679.894 287.891 682.252 287.891V287.891C683.307 287.891 684.241 287.212 684.567 286.209V286.209Z" fill="#FAC57D"/>
<path d="M376.171 321.254C376.9 319.012 380.072 319.012 380.801 321.254V321.254C381.126 322.257 382.061 322.936 383.115 322.936V322.936C385.473 322.936 386.453 325.953 384.546 327.339V327.339C383.693 327.959 383.336 329.057 383.662 330.06V330.06C384.39 332.302 381.824 334.167 379.916 332.781V332.781C379.063 332.161 377.908 332.161 377.055 332.781V332.781C375.148 334.167 372.581 332.302 373.31 330.06V330.06C373.636 329.057 373.279 327.959 372.426 327.339V327.339C370.518 325.953 371.499 322.936 373.856 322.936V322.936C374.911 322.936 375.845 322.257 376.171 321.254V321.254Z" fill="#FAC57D"/>
<path d="M324.559 204.013C325.288 201.771 328.46 201.771 329.189 204.013V204.013C329.515 205.016 330.449 205.695 331.503 205.695V205.695C333.861 205.695 334.841 208.712 332.934 210.097V210.097C332.081 210.717 331.724 211.816 332.05 212.819V212.819C332.778 215.061 330.212 216.925 328.305 215.54V215.54C327.452 214.92 326.296 214.92 325.443 215.54V215.54C323.536 216.925 320.97 215.061 321.698 212.819V212.819C322.024 211.816 321.667 210.717 320.814 210.097V210.097C318.907 208.712 319.887 205.695 322.245 205.695V205.695C323.299 205.695 324.233 205.016 324.559 204.013V204.013Z" fill="#FAC57D"/>
</g>
<defs>
<filter id="filter0_i_60_154" x="2.67578" y="2.44217" width="1106.08" height="416.197" filterUnits="userSpaceOnUse" color-interpolation-filters="sRGB">
<feFlood flood-opacity="0" result="BackgroundImageFix"/>
<feBlend mode="normal" in="SourceGraphic" in2="BackgroundImageFix" result="shape"/>
<feColorMatrix in="SourceAlpha" type="matrix" values="0 0 0 0 0 0 0 0 0 0 0 0 0 0 0 0 0 0 127 0" result="hardAlpha"/>
<feOffset dx="-3" dy="-3"/>
<feGaussianBlur stdDeviation="1.5"/>
<feComposite in2="hardAlpha" operator="arithmetic" k2="-1" k3="1"/>
<feColorMatrix type="matrix" values="0 0 0 0 0 0 0 0 0 0 0 0 0 0 0 0 0 0 0.25 0"/>
<feBlend mode="normal" in2="shape" result="effect1_innerShadow_60_154"/>
</filter>
</defs>
</svg>
